# xmcd CD database file generated by Grip 2.99.0
# 
# Track frame offsets:
#       150
#       21662
#       50300
#       78345
#       100930
#       125332
#       149365
#       181010
#       202870
#       226355
# 
# Disc length: 3336 seconds
# 
# Revision: 2
# Processed by: cddbd v1.4PL0 Copyright (c) Steve Scherf et al.
# Submitted via: Grip 2.99.0
# 
DISCID=7d0d060a
DTITLE=Red Snapper - Making Bones
DYEAR=1998
DGENRE=Club-House
TTITLE0=The Sleepless
TTITLE1=Crease
TTITLE2=Image of You
TTITLE3=Bogeyman
TTITLE4=The Tunnel
TTITLE5=Like a Moving Truck
TTITLE6=Spitalfields
TTITLE7=Seeing Red
TTITLE8=Suckerpunch
TTITLE9=4 Dead Monks
EXTD=Red Snapper - Making Bones
EXTT0=
EXTT1=
EXTT2=
EXTT3=
EXTT4=
EXTT5=
EXTT6=
EXTT7=
EXTT8=
EXTT9=
PLAYORDER=
